<svg width="19.503265" height="19.503418" viewBox="0 0 19.5033 19.5034" fill="none" xmlns="http://www.w3.org/2000/svg" xmlns:xlink="http://www.w3.org/1999/xlink">
	<desc>
			Created with Pixso.
	</desc>
	<defs/>
	<path id="Vector" d="M18.7502 18.7502L14.4072 14.4072M16.1414 11.8118C16.5435 10.8411 16.7504 9.80078 16.7504 8.75024C16.7504 7.69971 16.5435 6.65918 16.1414 5.68872C15.7394 4.71802 15.1501 3.83618 14.4072 3.09326C13.6643 2.35034 12.7824 1.76099 11.8118 1.35889C10.8411 0.957031 9.80081 0.75 8.75021 0.75C7.6996 0.75 6.65929 0.957031 5.68866 1.35889C4.71803 1.76099 3.83609 2.35034 3.0932 3.09326C1.59288 4.59351 0.75 6.62842 0.75 8.75024C0.75 10.8721 1.59288 12.907 3.0932 14.4072C4.59354 15.9075 6.62842 16.7505 8.75021 16.7505C10.872 16.7505 12.9069 15.9075 14.4072 14.4072C15.1501 13.6643 15.7394 12.7825 16.1414 11.8118ZM8.75021 5.75024L8.75021 11.7502M5.75021 8.75024L11.7502 8.75024" stroke="#FFFFFF" stroke-opacity="1.000000" stroke-width="1.500000" stroke-linejoin="round"/>
</svg>
