<svg width="44.000000" height="20.000000" viewBox="0 0 44 20" fill="none" xmlns="http://www.w3.org/2000/svg" xmlns:xlink="http://www.w3.org/1999/xlink">
	<desc>
			Created with Pixso.
	</desc>
	<defs/>
	<rect id="Frame 15" rx="4.000000" width="44.000000" height="20.000000" fill="#FFFFFF" fill-opacity="1.000000"/>
	<path id="NEW" d="M10.78 8.08L10.78 13.948L12.28 13.948L12.28 10.648Q12.28 10.0706 12.5536 9.68986Q12.6042 9.61958 12.664 9.556Q12.7796 9.43337 12.9178 9.34654Q13.2527 9.136 13.72 9.136Q14.1858 9.136 14.4373 9.36816Q14.4774 9.40514 14.512 9.448C14.688 9.656 14.776 9.988 14.776 10.444L14.776 13.948L16.276 13.948L16.276 10.372Q16.276 8.98643 15.5909 8.3968Q15.0834 7.96 14.2 7.96Q13.6228 7.96 13.1444 8.17744Q13.0957 8.19959 13.048 8.224Q12.8476 8.32899 12.6794 8.47193Q12.4247 8.68843 12.244 8.992L12.244 8.08L10.78 8.08ZM18.9755 13.696C19.4555 13.944 20.0275 14.068 20.6915 14.068Q21.3275 14.068 21.9635 13.864Q22.5995 13.66 23.0195 13.312L22.5995 12.304C22.3275 12.52 22.0275 12.68 21.6995 12.784C21.3715 12.88 21.0435 12.928 20.7155 12.928Q19.8705 12.928 19.418 12.5066Q18.9965 12.1141 18.9155 11.356L23.1155 11.356L23.1155 10.912Q23.1155 9.66956 22.5117 8.90224Q22.4507 8.82469 22.3835 8.752Q22.1872 8.536 21.9515 8.37891Q21.3232 7.96 20.4155 7.96Q19.725 7.96 19.1527 8.22014Q19.0189 8.28096 18.8915 8.356C18.4515 8.612 18.1035 8.968 17.8475 9.424Q17.4755 10.108 17.4755 11.02Q17.4755 11.956 17.8595 12.64C18.1235 13.096 18.4955 13.448 18.9755 13.696ZM23.5137 8.08L25.8297 13.948L27.1377 13.948L28.5417 10.168L29.9697 13.948L31.2777 13.948L33.5817 8.08L32.1297 8.08L30.6297 12.232L29.1177 8.08L28.0617 8.08L26.5497 12.208L25.0497 8.08L23.5137 8.08ZM19.4075 9.388C19.6795 9.116 20.0355 8.98 20.4755 8.98Q20.9614 8.98 21.2792 9.21112Q21.3774 9.28253 21.4595 9.376Q21.8195 9.76 21.8675 10.492L18.9155 10.492C18.9715 10.028 19.1355 9.66 19.4075 9.388Z" fill="#1A3E3E" fill-opacity="1.000000" fill-rule="evenodd"/>
</svg>
