<svg width="13.734300" height="15.173340" viewBox="0 0 13.7343 15.1733" fill="none" xmlns="http://www.w3.org/2000/svg" xmlns:xlink="http://www.w3.org/1999/xlink">
	<desc>
			Created with Pixso.
	</desc>
	<defs/>
	<path id="Vector" d="M2.74267 0.241455C2.46389 0.0821533 2.14819 -0.00109863 1.82714 0C1.50609 0.00109863 1.19096 0.0864258 0.913263 0.247559C0.635571 0.408691 0.405056 0.639893 0.244785 0.918091C0.0845127 1.19629 0.000102997 1.51172 0 1.83276L0 13.3406C0.000102997 13.6616 0.0845127 13.9771 0.244785 14.2552C0.405056 14.5334 0.635571 14.7646 0.913263 14.9258C1.19096 15.0868 1.50609 15.1722 1.82714 15.1733C2.14819 15.1744 2.46389 15.0912 2.74267 14.9319L12.8113 9.17712C13.0917 9.0166 13.3248 8.78503 13.4869 8.50549C13.6489 8.22607 13.7343 7.90881 13.7343 7.58569C13.7343 7.2627 13.6489 6.94543 13.4869 6.66589C13.3248 6.38647 13.0917 6.15479 12.8113 5.99438L2.74267 0.241455Z" fill="#1A3E3E" fill-opacity="1.000000" fill-rule="nonzero"/>
</svg>
