<svg width="137.000000" height="28.780273" viewBox="0 0 137 28.7803" fill="none" xmlns="http://www.w3.org/2000/svg" xmlns:xlink="http://www.w3.org/1999/xlink">
	<desc>
			Created with Pixso.
	</desc>
	<defs/>
	<path id="Vector" d="M0.153503 17.8943C0.397888 17.8362 24.8152 12.0149 43.1998 3.86084C45.2449 2.95386 46.9008 2.41602 48.2956 2.1626C46.7329 3.7373 37.54 7.6626 44.882 8.35815C51.6186 8.99707 40.5214 16.9907 35.4343 19.897C22.0532 24.1396 13.3687 25.8059 13.2126 25.8354L13.3967 26.8171C13.4423 26.8083 14.2201 26.6592 15.6276 26.3479C23.0039 24.7153 47.7648 18.6021 76.1721 4.63159C80.1558 2.67236 83.4072 1.58594 86.1436 1.18286C85.3414 5.29858 76.0532 14.3999 90.8867 16.6982C104.416 18.7942 77.2846 24.116 67.1729 26.8257C65.7145 27.2166 64.6097 27.5532 64.0327 27.8176C59.5683 29.8655 111.467 28.0234 134.676 27.9302C135.433 27.9568 136.206 27.9722 137 27.9722L137 26.9734C116.27 26.9734 108.928 17.4937 103.028 9.87646C96.8975 1.96094 92.0551 -4.29224 75.7316 3.73535C71.9386 5.59937 68.1041 7.37817 64.2312 9.07007C60.8086 7.85205 58.7358 6.10034 56.9198 4.56274C53.5385 1.69946 51.0952 -0.369629 42.9304 3.25244C24.6028 11.3806 0.243744 17.1885 0 17.2461L0.153503 17.8943Z" fill="#FDFDFD" fill-opacity="1.000000" fill-rule="nonzero"/>
</svg>
